<svg xmlns="http://www.w3.org/2000/svg" xmlns:xlink="http://www.w3.org/1999/xlink" viewBox="0,0,256,256" width="64px" height="64px"><defs><linearGradient x1="32" y1="13.75" x2="32" y2="55.668" gradientUnits="userSpaceOnUse" id="color-1"><stop offset="0" stop-color="#eaee83"></stop><stop offset="1" stop-color="#fdc599"></stop></linearGradient><linearGradient x1="32" y1="3.25" x2="32" y2="60.02" gradientUnits="userSpaceOnUse" id="color-2"><stop offset="0" stop-color="#d9e021"></stop><stop offset="1" stop-color="#fb872b"></stop></linearGradient></defs><g fill="none" fill-rule="nonzero" stroke="none" stroke-width="1" stroke-linecap="butt" stroke-linejoin="miter" stroke-miterlimit="10" stroke-dasharray="" stroke-dashoffset="0" font-family="none" font-weight="none" font-size="none" text-anchor="none" style="mix-blend-mode: normal"><g transform="scale(4,4)"><path d="M22.89,55.28c-0.22,-1.98 -0.42,-5.01 0.09,-7.17c0.45,-1.95 2.93,-12.43 2.93,-12.43c0,0 -0.75,-1.5 -0.75,-3.71c0,-3.48 2.01,-6.07 4.52,-6.07c2.14,0 3.17,1.6 3.17,3.52c0,2.15 -1.37,5.35 -2.07,8.32c-0.59,2.49 1.24,4.52 3.7,4.52c4.44,0 7.86,-4.68 7.86,-11.45c0,-5.98 -4.3,-10.17 -10.45,-10.17c-7.11,0 -11.28,5.34 -11.28,10.85c0,2.15 0.82,4.45 1.86,5.71c0.2,0.24 0.23,0.46 0.17,0.71c-0.19,0.79 -0.61,2.49 -0.69,2.84c-0.11,0.46 -0.37,0.55 -0.84,0.33c-3.12,-1.45 -5.08,-6.01 -5.08,-9.68c0,-7.89 5.73,-15.13 16.52,-15.13c8.68,0 15.42,6.18 15.42,14.44c0,8.61 -5.44,15.55 -12.98,15.55c-2.53,0 -4.91,-1.32 -5.73,-2.87c0,0 -1.25,4.77 -1.55,5.94c-0.57,2.17 -2.09,4.89 -3.11,6.56" fill="url(#color-1)"></path><path d="M32,58c-14.336,0 -26,-11.663 -26,-26c0,-14.337 11.664,-26 26,-26c14.336,0 26,11.663 26,26c0,14.337 -11.664,26 -26,26zM32,8c-13.233,0 -24,10.767 -24,24c0,13.233 10.767,24 24,24c13.233,0 24,-10.767 24,-24c0,-13.233 -10.767,-24 -24,-24z" fill="url(#color-2)"></path></g></g></svg>