<svg xmlns="http://www.w3.org/2000/svg" xmlns:xlink="http://www.w3.org/1999/xlink" viewBox="0,0,256,256" width="64px" height="64px"><defs><linearGradient x1="32" y1="10" x2="32" y2="54.751" gradientUnits="userSpaceOnUse" id="color-1"><stop offset="0" stop-color="#d9e021"></stop><stop offset="1" stop-color="#fb872b"></stop></linearGradient><linearGradient x1="31.72" y1="24.25" x2="31.72" y2="39.252" gradientUnits="userSpaceOnUse" id="color-2"><stop offset="0" stop-color="#eaee83"></stop><stop offset="1" stop-color="#fdc599"></stop></linearGradient><linearGradient x1="32.212" y1="10" x2="32.212" y2="54.751" gradientUnits="userSpaceOnUse" id="color-3"><stop offset="0" stop-color="#d9e021"></stop><stop offset="1" stop-color="#fb872b"></stop></linearGradient></defs><g fill="none" fill-rule="nonzero" stroke="none" stroke-width="1" stroke-linecap="butt" stroke-linejoin="miter" stroke-miterlimit="10" stroke-dasharray="" stroke-dashoffset="0" font-family="none" font-weight="none" font-size="none" text-anchor="none" style="mix-blend-mode: normal"><g transform="scale(4,4)"><path d="M32,53.001c-6.358,0 -12.716,-0.195 -19.299,-0.584c-4.96,-0.293 -8.961,-4.242 -9.308,-9.187c-0.521,-7.452 -0.521,-15.009 -0.001,-22.46c0.348,-4.945 4.349,-8.895 9.309,-9.188c13.167,-0.778 25.433,-0.778 38.598,0c4.96,0.293 8.961,4.242 9.308,9.187c0.521,7.452 0.521,15.009 0.001,22.46c-0.348,4.945 -4.349,8.895 -9.309,9.188v0c-6.583,0.389 -12.941,0.584 -19.299,0.584zM51.182,50.421l0.059,0.998l-0.059,-0.998c3.959,-0.234 7.153,-3.386 7.431,-7.331c0.515,-7.358 0.515,-14.821 -0.001,-22.181c-0.276,-3.944 -3.471,-7.096 -7.43,-7.33c-13.088,-0.773 -25.275,-0.773 -38.363,0c-3.959,0.234 -7.153,3.386 -7.431,7.331c-0.515,7.358 -0.515,14.821 0.001,22.181c0.276,3.944 3.471,7.096 7.43,7.33c13.087,0.773 25.275,0.773 38.363,0z" fill="url(#color-1)"></path><path d="M25,39.84v-15.68l13.44,7.84z" fill="url(#color-2)"></path><path d="M24,41.581v-19.162l16.425,9.581zM26,25.901v12.197l10.456,-6.098z" fill="url(#color-3)"></path></g></g></svg>